<mxfile host="app.diagrams.net" modified="2024-03-11T14:02:37.651Z" agent="Mozilla/5.0 (Windows NT 10.0; Win64; x64) AppleWebKit/537.36 (KHTML, like Gecko) Chrome/122.0.0.0 Safari/537.36" etag="ManzQfMyHN-UPD7bs-dG" version="24.0.4" type="github">
  <diagram name="第 1 页" id="FDtEsgjhYImc4gk-P5fz">
    <mxGraphModel dx="1077" dy="652" grid="1" gridSize="10" guides="1" tooltips="1" connect="1" arrows="1" fold="1" page="1" pageScale="1" pageWidth="827" pageHeight="1169" math="0" shadow="0">
      <root>
        <mxCell id="0" />
        <mxCell id="1" parent="0" />
        <mxCell id="mCHO1RYdTXxO_RGGgIWj-1" value="管理员" style="shape=umlActor;verticalLabelPosition=bottom;verticalAlign=top;html=1;outlineConnect=0;" vertex="1" parent="1">
          <mxGeometry x="180" y="210" width="30" height="60" as="geometry" />
        </mxCell>
        <mxCell id="mCHO1RYdTXxO_RGGgIWj-4" value="用户" style="shape=umlActor;verticalLabelPosition=bottom;verticalAlign=top;html=1;outlineConnect=0;" vertex="1" parent="1">
          <mxGeometry x="450" y="210" width="30" height="60" as="geometry" />
        </mxCell>
        <mxCell id="mCHO1RYdTXxO_RGGgIWj-5" value="用户模块" style="ellipse;whiteSpace=wrap;html=1;fillColor=#ffe6cc;strokeColor=#d79b00;" vertex="1" parent="1">
          <mxGeometry x="294" y="70" width="90" height="60" as="geometry" />
        </mxCell>
        <mxCell id="mCHO1RYdTXxO_RGGgIWj-6" value="资源模块" style="ellipse;whiteSpace=wrap;html=1;fillColor=#ffe6cc;strokeColor=#d79b00;" vertex="1" parent="1">
          <mxGeometry x="460" y="70" width="80" height="60" as="geometry" />
        </mxCell>
        <mxCell id="mCHO1RYdTXxO_RGGgIWj-7" value="&lt;span style=&quot;font-size: 14pt; font-family: 黑体;&quot;&gt;订单模块&lt;/span&gt;" style="ellipse;whiteSpace=wrap;html=1;fillColor=#ffe6cc;strokeColor=#d79b00;" vertex="1" parent="1">
          <mxGeometry x="570" y="160" width="120" height="80" as="geometry" />
        </mxCell>
        <mxCell id="mCHO1RYdTXxO_RGGgIWj-8" value="&lt;span style=&quot;font-size: 14pt; font-family: 黑体;&quot;&gt;交流模块&lt;/span&gt;" style="ellipse;whiteSpace=wrap;html=1;fillColor=#ffe6cc;strokeColor=#d79b00;" vertex="1" parent="1">
          <mxGeometry x="500" y="350" width="120" height="80" as="geometry" />
        </mxCell>
        <mxCell id="mCHO1RYdTXxO_RGGgIWj-9" value="&lt;span style=&quot;font-size: 14pt; font-family: 黑体;&quot;&gt;用户管理&lt;/span&gt;" style="ellipse;whiteSpace=wrap;html=1;fillColor=#ffe6cc;strokeColor=#d79b00;" vertex="1" parent="1">
          <mxGeometry x="60" y="110" width="100" height="70" as="geometry" />
        </mxCell>
        <mxCell id="mCHO1RYdTXxO_RGGgIWj-10" value="&lt;p class=&quot;MsoNormal&quot;&gt;&lt;span style=&quot;font-size: 14pt; font-family: 黑体;&quot;&gt;资源管理&lt;span lang=&quot;EN-US&quot;&gt;&lt;/span&gt;&lt;/span&gt;&lt;/p&gt;" style="ellipse;whiteSpace=wrap;html=1;fillColor=#ffe6cc;strokeColor=#d79b00;" vertex="1" parent="1">
          <mxGeometry x="50" y="340" width="120" height="80" as="geometry" />
        </mxCell>
        <mxCell id="mCHO1RYdTXxO_RGGgIWj-11" value="&lt;span style=&quot;font-size: 14pt; font-family: 黑体;&quot;&gt;版本管理&lt;/span&gt;" style="ellipse;whiteSpace=wrap;html=1;fillColor=#ffe6cc;strokeColor=#d79b00;" vertex="1" parent="1">
          <mxGeometry x="294" y="360" width="120" height="80" as="geometry" />
        </mxCell>
        <mxCell id="mCHO1RYdTXxO_RGGgIWj-12" value="&lt;span style=&quot;font-size: 14pt; font-family: 黑体;&quot;&gt;购物车模块&lt;/span&gt;" style="ellipse;whiteSpace=wrap;html=1;fillColor=#ffe6cc;strokeColor=#d79b00;" vertex="1" parent="1">
          <mxGeometry x="630" y="270" width="120" height="80" as="geometry" />
        </mxCell>
        <mxCell id="mCHO1RYdTXxO_RGGgIWj-13" value="" style="endArrow=none;html=1;rounded=0;exitX=0.538;exitY=-0.041;exitDx=0;exitDy=0;exitPerimeter=0;entryX=0;entryY=1;entryDx=0;entryDy=0;entryPerimeter=0;" edge="1" parent="1" source="mCHO1RYdTXxO_RGGgIWj-10" target="mCHO1RYdTXxO_RGGgIWj-1">
          <mxGeometry width="50" height="50" relative="1" as="geometry">
            <mxPoint x="320" y="280" as="sourcePoint" />
            <mxPoint x="370" y="230" as="targetPoint" />
          </mxGeometry>
        </mxCell>
        <mxCell id="mCHO1RYdTXxO_RGGgIWj-15" value="" style="endArrow=none;html=1;rounded=0;exitX=0;exitY=0.3333333333333333;exitDx=0;exitDy=0;exitPerimeter=0;entryX=0.5;entryY=1;entryDx=0;entryDy=0;" edge="1" parent="1" source="mCHO1RYdTXxO_RGGgIWj-1" target="mCHO1RYdTXxO_RGGgIWj-9">
          <mxGeometry width="50" height="50" relative="1" as="geometry">
            <mxPoint x="160" y="220" as="sourcePoint" />
            <mxPoint x="210" y="170" as="targetPoint" />
          </mxGeometry>
        </mxCell>
        <mxCell id="mCHO1RYdTXxO_RGGgIWj-16" value="" style="endArrow=none;html=1;rounded=0;exitX=0.5;exitY=0;exitDx=0;exitDy=0;entryX=0;entryY=1;entryDx=0;entryDy=0;entryPerimeter=0;" edge="1" parent="1" source="mCHO1RYdTXxO_RGGgIWj-11" target="mCHO1RYdTXxO_RGGgIWj-4">
          <mxGeometry width="50" height="50" relative="1" as="geometry">
            <mxPoint x="300" y="290" as="sourcePoint" />
            <mxPoint x="350" y="240" as="targetPoint" />
          </mxGeometry>
        </mxCell>
        <mxCell id="mCHO1RYdTXxO_RGGgIWj-17" value="" style="endArrow=none;html=1;rounded=0;exitX=0;exitY=0;exitDx=0;exitDy=0;entryX=1;entryY=1;entryDx=0;entryDy=0;entryPerimeter=0;" edge="1" parent="1" source="mCHO1RYdTXxO_RGGgIWj-8" target="mCHO1RYdTXxO_RGGgIWj-4">
          <mxGeometry width="50" height="50" relative="1" as="geometry">
            <mxPoint x="500" y="350" as="sourcePoint" />
            <mxPoint x="550" y="300" as="targetPoint" />
          </mxGeometry>
        </mxCell>
        <mxCell id="mCHO1RYdTXxO_RGGgIWj-18" value="" style="endArrow=none;html=1;rounded=0;exitX=0;exitY=0.3333333333333333;exitDx=0;exitDy=0;exitPerimeter=0;entryX=1;entryY=1;entryDx=0;entryDy=0;" edge="1" parent="1" source="mCHO1RYdTXxO_RGGgIWj-4" target="mCHO1RYdTXxO_RGGgIWj-5">
          <mxGeometry width="50" height="50" relative="1" as="geometry">
            <mxPoint x="360" y="230" as="sourcePoint" />
            <mxPoint x="410" y="180" as="targetPoint" />
          </mxGeometry>
        </mxCell>
        <mxCell id="mCHO1RYdTXxO_RGGgIWj-19" value="" style="endArrow=none;html=1;rounded=0;exitX=1;exitY=0.3333333333333333;exitDx=0;exitDy=0;exitPerimeter=0;entryX=0.5;entryY=1;entryDx=0;entryDy=0;" edge="1" parent="1" source="mCHO1RYdTXxO_RGGgIWj-4" target="mCHO1RYdTXxO_RGGgIWj-6">
          <mxGeometry width="50" height="50" relative="1" as="geometry">
            <mxPoint x="570" y="170" as="sourcePoint" />
            <mxPoint x="620" y="120" as="targetPoint" />
          </mxGeometry>
        </mxCell>
        <mxCell id="mCHO1RYdTXxO_RGGgIWj-20" value="" style="endArrow=none;html=1;rounded=0;entryX=0;entryY=0.5;entryDx=0;entryDy=0;" edge="1" parent="1" target="mCHO1RYdTXxO_RGGgIWj-7">
          <mxGeometry width="50" height="50" relative="1" as="geometry">
            <mxPoint x="480" y="230" as="sourcePoint" />
            <mxPoint x="620" y="140" as="targetPoint" />
          </mxGeometry>
        </mxCell>
        <mxCell id="mCHO1RYdTXxO_RGGgIWj-21" value="" style="endArrow=none;html=1;rounded=0;exitX=1;exitY=0.3333333333333333;exitDx=0;exitDy=0;exitPerimeter=0;entryX=0;entryY=0.5;entryDx=0;entryDy=0;" edge="1" parent="1" source="mCHO1RYdTXxO_RGGgIWj-4" target="mCHO1RYdTXxO_RGGgIWj-12">
          <mxGeometry width="50" height="50" relative="1" as="geometry">
            <mxPoint x="580" y="340" as="sourcePoint" />
            <mxPoint x="630" y="290" as="targetPoint" />
          </mxGeometry>
        </mxCell>
        <mxCell id="mCHO1RYdTXxO_RGGgIWj-22" value="用户" style="shape=umlActor;verticalLabelPosition=bottom;verticalAlign=top;html=1;outlineConnect=0;" vertex="1" parent="1">
          <mxGeometry x="110" y="720" width="40" height="60" as="geometry" />
        </mxCell>
        <mxCell id="mCHO1RYdTXxO_RGGgIWj-23" value="用户模块" style="ellipse;whiteSpace=wrap;html=1;fillColor=#ffe6cc;strokeColor=#d79b00;" vertex="1" parent="1">
          <mxGeometry x="210" y="690" width="91" height="70" as="geometry" />
        </mxCell>
        <mxCell id="mCHO1RYdTXxO_RGGgIWj-24" value="登录" style="ellipse;whiteSpace=wrap;html=1;fillColor=#ffe6cc;strokeColor=#d79b00;" vertex="1" parent="1">
          <mxGeometry x="350" y="520" width="120" height="80" as="geometry" />
        </mxCell>
        <mxCell id="mCHO1RYdTXxO_RGGgIWj-25" value="注册" style="ellipse;whiteSpace=wrap;html=1;fillColor=#ffe6cc;strokeColor=#d79b00;" vertex="1" parent="1">
          <mxGeometry x="400" y="670" width="120" height="80" as="geometry" />
        </mxCell>
        <mxCell id="mCHO1RYdTXxO_RGGgIWj-26" value="修改信息" style="ellipse;whiteSpace=wrap;html=1;fillColor=#ffe6cc;strokeColor=#d79b00;" vertex="1" parent="1">
          <mxGeometry x="414" y="810" width="120" height="80" as="geometry" />
        </mxCell>
        <mxCell id="mCHO1RYdTXxO_RGGgIWj-27" value="" style="endArrow=none;html=1;rounded=0;exitX=0.5;exitY=0;exitDx=0;exitDy=0;entryX=0.5;entryY=1;entryDx=0;entryDy=0;" edge="1" parent="1" source="mCHO1RYdTXxO_RGGgIWj-23" target="mCHO1RYdTXxO_RGGgIWj-24">
          <mxGeometry width="50" height="50" relative="1" as="geometry">
            <mxPoint x="150" y="620" as="sourcePoint" />
            <mxPoint x="200" y="570" as="targetPoint" />
          </mxGeometry>
        </mxCell>
        <mxCell id="mCHO1RYdTXxO_RGGgIWj-28" value="" style="endArrow=none;html=1;rounded=0;exitX=1;exitY=0.5;exitDx=0;exitDy=0;entryX=0;entryY=0.5;entryDx=0;entryDy=0;" edge="1" parent="1" source="mCHO1RYdTXxO_RGGgIWj-23" target="mCHO1RYdTXxO_RGGgIWj-25">
          <mxGeometry width="50" height="50" relative="1" as="geometry">
            <mxPoint x="390" y="690" as="sourcePoint" />
            <mxPoint x="440" y="640" as="targetPoint" />
          </mxGeometry>
        </mxCell>
        <mxCell id="mCHO1RYdTXxO_RGGgIWj-29" value="" style="endArrow=none;html=1;rounded=0;exitX=0;exitY=0.5;exitDx=0;exitDy=0;entryX=1;entryY=1;entryDx=0;entryDy=0;" edge="1" parent="1" source="mCHO1RYdTXxO_RGGgIWj-26" target="mCHO1RYdTXxO_RGGgIWj-23">
          <mxGeometry width="50" height="50" relative="1" as="geometry">
            <mxPoint x="330" y="810" as="sourcePoint" />
            <mxPoint x="380" y="760" as="targetPoint" />
          </mxGeometry>
        </mxCell>
        <mxCell id="mCHO1RYdTXxO_RGGgIWj-30" value="" style="endArrow=none;html=1;rounded=0;exitX=1;exitY=0.3333333333333333;exitDx=0;exitDy=0;exitPerimeter=0;entryX=0;entryY=0.5;entryDx=0;entryDy=0;" edge="1" parent="1" source="mCHO1RYdTXxO_RGGgIWj-22" target="mCHO1RYdTXxO_RGGgIWj-23">
          <mxGeometry width="50" height="50" relative="1" as="geometry">
            <mxPoint x="130" y="660" as="sourcePoint" />
            <mxPoint x="180" y="610" as="targetPoint" />
          </mxGeometry>
        </mxCell>
        <mxCell id="mCHO1RYdTXxO_RGGgIWj-31" value="验证密码" style="ellipse;whiteSpace=wrap;html=1;fillColor=#ffe6cc;strokeColor=#d79b00;" vertex="1" parent="1">
          <mxGeometry x="600" y="510" width="110" height="80" as="geometry" />
        </mxCell>
        <mxCell id="mCHO1RYdTXxO_RGGgIWj-32" value="" style="endArrow=classic;html=1;rounded=0;exitX=1;exitY=0.5;exitDx=0;exitDy=0;entryX=-0.029;entryY=0.56;entryDx=0;entryDy=0;entryPerimeter=0;dashed=1;" edge="1" parent="1" source="mCHO1RYdTXxO_RGGgIWj-24" target="mCHO1RYdTXxO_RGGgIWj-31">
          <mxGeometry relative="1" as="geometry">
            <mxPoint x="540" y="500" as="sourcePoint" />
            <mxPoint x="640" y="500" as="targetPoint" />
          </mxGeometry>
        </mxCell>
        <mxCell id="mCHO1RYdTXxO_RGGgIWj-33" value="&amp;lt;&amp;lt;include&amp;gt;&amp;gt;" style="edgeLabel;resizable=0;html=1;;align=center;verticalAlign=middle;" connectable="0" vertex="1" parent="mCHO1RYdTXxO_RGGgIWj-32">
          <mxGeometry relative="1" as="geometry" />
        </mxCell>
      </root>
    </mxGraphModel>
  </diagram>
</mxfile>
